<svg width="86" height="86" viewBox="0 0 86 86" fill="none" xmlns="http://www.w3.org/2000/svg">
<path d="M77.5747 71.2191C72.4584 62.3739 64.5739 56.0314 55.3726 53.0247C59.924 50.3153 63.4601 46.1866 65.438 41.2729C67.4159 36.3592 67.7261 30.9321 66.321 25.8251C64.9159 20.718 61.8733 16.2133 57.6603 13.0029C53.4473 9.79244 48.2969 8.05371 43 8.05371C37.7032 8.05371 32.5528 9.79244 28.3398 13.0029C24.1268 16.2133 21.0841 20.718 19.679 25.8251C18.274 30.9321 18.5842 36.3592 20.562 41.2729C22.5399 46.1866 26.0761 50.3153 30.6274 53.0247C21.4261 56.028 13.5417 62.3705 8.42534 71.2191C8.23771 71.525 8.11326 71.8655 8.05933 72.2203C8.0054 72.5751 8.02307 72.9371 8.11132 73.285C8.19956 73.6328 8.35658 73.9595 8.57312 74.2457C8.78966 74.5319 9.06133 74.7718 9.37209 74.9513C9.68286 75.1308 10.0264 75.2463 10.3825 75.2908C10.7386 75.3354 11.1001 75.3082 11.4455 75.2108C11.7909 75.1134 12.1133 74.9479 12.3937 74.7239C12.6741 74.4999 12.9068 74.222 13.0781 73.9066C19.4071 62.9685 30.5939 56.4379 43 56.4379C55.4062 56.4379 66.5929 62.9685 72.922 73.9066C73.0932 74.222 73.3259 74.4999 73.6063 74.7239C73.8867 74.9479 74.2091 75.1134 74.5546 75.2108C74.9 75.3082 75.2614 75.3354 75.6175 75.2908C75.9736 75.2463 76.3172 75.1308 76.628 74.9513C76.9387 74.7718 77.2104 74.5319 77.4269 74.2457C77.6435 73.9595 77.8005 73.6328 77.8887 73.285C77.977 72.9371 77.9947 72.5751 77.9407 72.2203C77.8868 71.8655 77.7623 71.525 77.5747 71.2191ZM24.1875 32.2504C24.1875 28.5296 25.2909 24.8924 27.358 21.7987C29.4251 18.705 32.3633 16.2937 35.8008 14.8699C39.2383 13.446 43.0209 13.0734 46.6702 13.7993C50.3194 14.5252 53.6715 16.3169 56.3025 18.9479C58.9334 21.5789 60.7252 24.9309 61.4511 28.5802C62.1769 32.2295 61.8044 36.0121 60.3805 39.4496C58.9566 42.8871 56.5454 45.8252 53.4517 47.8924C50.358 49.9595 46.7208 51.0629 43 51.0629C38.0123 51.0575 33.2303 49.0738 29.7035 45.5469C26.1766 42.02 24.1929 37.2381 24.1875 32.2504Z" fill="#505173"/>
</svg>
